<?xml version="1.0" encoding="iso-8859-1"?>
<!DOCTYPE svg PUBLIC "-//W3C//DTD SVG 1.1//EN" "http://www.w3.org/Graphics/SVG/1.1/DTD/svg11.dtd">
<svg 
 version="1.1" xmlns="http://www.w3.org/2000/svg" xmlns:xlink="http://www.w3.org/1999/xlink" x="0px" y="0px" width="512px"
	 height="512px" viewBox="0 0 512 512" style="enable-background:new 0 0 512 512;" xml:space="preserve"
><g fill="#ffffff" id="afcae5a789ccd549f9c6e2a2f818f4e6"><g></g><path style="display: inline;" d="M475.126,497.038H36.87c-15.336,0-26.98-5.818-32.794-16.385
		c-6.063-11.037-4.362-25.521,4.666-39.747l0.283-0.425l170.28-242.723V78.823c-12.755-4.521-21.912-16.707-21.912-30.992
		c0-18.125,14.742-32.869,32.869-32.869h131.477c18.123,0,32.869,14.744,32.869,32.869c0,14.285-9.157,26.471-21.916,30.992v118.936
		l170.566,243.147c9.028,14.226,10.729,28.71,4.666,39.747C502.11,491.22,490.467,497.038,475.126,497.038z M27.119,452.85
		c-4.383,6.986-5.855,13.581-3.838,17.249c1.759,3.194,6.712,5.032,13.59,5.032h438.256c6.882,0,11.835-1.838,13.594-5.032
		c2.017-3.668,0.545-10.263-3.838-17.249L310.78,204.679V58.787h10.958c6.038,0,10.953-4.915,10.953-10.956
		c0-6.042-4.915-10.956-10.953-10.956H190.262c-6.038,0-10.957,4.913-10.957,10.956c0,6.041,4.919,10.956,10.957,10.956h10.958
		v145.892L27.119,452.85z M349.793,300.261c-30.678,8.433-64.49,13.128-100.033,13.128c-31.51,0-61.65-3.701-89.463-10.413
		L68.818,433.379c-7.252,10.338-2.853,18.797,9.772,18.797h354.818c12.625,0,17.024-8.459,9.772-18.797L349.793,300.261z"></path></g></svg>